<svg width="198" height="51" viewBox="0 0 198 51" fill="none" xmlns="http://www.w3.org/2000/svg">
<path d="M9.399 49.9995H7.54V43.9285L5.096 49.9995H4.29L1.846 43.9285V49.9995H0V41.3285H2.587L4.693 46.5675L6.799 41.3285H9.399V49.9995Z" fill="white"/>
<path d="M22.4571 49.9995H20.3511L19.8181 48.5305H16.1001L15.5541 49.9995H13.4481L16.8021 41.3285H19.1161L22.4571 49.9995ZM19.3111 46.9055L17.9591 43.1745L16.6071 46.9055H19.3111Z" fill="white"/>
<path d="M30.2625 50.1685C28.9625 50.1685 27.8661 49.7525 26.9735 48.9205C26.0895 48.0885 25.6475 47.0052 25.6475 45.6705C25.6475 44.3272 26.0895 43.2439 26.9735 42.4205C27.8661 41.5972 28.9625 41.1855 30.2625 41.1855C31.8398 41.1855 33.0358 41.8312 33.8505 43.1225L32.3165 43.9545C32.1085 43.6252 31.8225 43.3565 31.4585 43.1485C31.1031 42.9319 30.7045 42.8235 30.2625 42.8235C29.4738 42.8235 28.8238 43.0922 28.3125 43.6295C27.8011 44.1669 27.5455 44.8472 27.5455 45.6705C27.5455 46.4939 27.8011 47.1742 28.3125 47.7115C28.8238 48.2489 29.4738 48.5175 30.2625 48.5175C30.6265 48.5175 30.9775 48.4525 31.3155 48.3225C31.6535 48.1925 31.9178 48.0365 32.1085 47.8545V46.8145H29.8205V45.2025H33.9545V48.5305C32.9751 49.6225 31.7445 50.1685 30.2625 50.1685Z" fill="white"/>
<path d="M46.4309 49.9995H44.6499L40.5159 44.3445V49.9995H38.6699V41.3285H40.5679L44.5849 46.7755V41.3285H46.4309V49.9995Z" fill="white"/>
<path d="M57.5266 49.9995H51.3906V41.3285H57.5266V42.9535H53.2366V44.7865H57.4356V46.4115H53.2366V48.3745H57.5266V49.9995Z" fill="white"/>
<path d="M66.0807 49.9995H64.2217V42.9535H61.6867V41.3285H68.6027V42.9535H66.0807V49.9995Z" fill="white"/>
<path d="M74.8821 49.9995H73.0361V41.3285H74.8821V49.9995Z" fill="white"/>
<path d="M84.0525 50.1555C82.7352 50.1555 81.6345 49.7395 80.7505 48.9075C79.8752 48.0669 79.4375 46.9879 79.4375 45.6705C79.4375 44.3532 79.8752 43.2785 80.7505 42.4465C81.6345 41.6059 82.7352 41.1855 84.0525 41.1855C85.6732 41.1855 86.8822 41.8919 87.6795 43.3045L86.0935 44.0845C85.9028 43.7205 85.6212 43.4215 85.2485 43.1875C84.8845 42.9449 84.4858 42.8235 84.0525 42.8235C83.2638 42.8235 82.6138 43.0922 82.1025 43.6295C81.5912 44.1669 81.3355 44.8472 81.3355 45.6705C81.3355 46.4939 81.5912 47.1742 82.1025 47.7115C82.6138 48.2489 83.2638 48.5175 84.0525 48.5175C84.4858 48.5175 84.8845 48.4005 85.2485 48.1665C85.6212 47.9325 85.9028 47.6292 86.0935 47.2565L87.6795 48.0235C86.8562 49.4449 85.6472 50.1555 84.0525 50.1555Z" fill="white"/>
<path d="M108.003 49.9995H106.144V43.9285L103.7 49.9995H102.894L100.45 43.9285V49.9995H98.6045V41.3285H101.191L103.297 46.5675L105.403 41.3285H108.003V49.9995Z" fill="white"/>
<path d="M121.062 49.9995H118.956L118.423 48.5305H114.705L114.159 49.9995H112.053L115.407 41.3285H117.721L121.062 49.9995ZM117.916 46.9055L116.564 43.1745L115.212 46.9055H117.916Z" fill="white"/>
<path d="M132.132 49.9995H130.013L128.31 46.9185H126.958V49.9995H125.112V41.3285H129.168C130.061 41.3285 130.767 41.5885 131.287 42.1085C131.816 42.6285 132.08 43.3002 132.08 44.1235C132.08 44.8342 131.894 45.4105 131.521 45.8525C131.157 46.2945 130.711 46.5762 130.182 46.6975L132.132 49.9995ZM128.895 45.2935C129.277 45.2935 129.589 45.1895 129.831 44.9815C130.074 44.7649 130.195 44.4789 130.195 44.1235C130.195 43.7682 130.074 43.4865 129.831 43.2785C129.589 43.0619 129.277 42.9535 128.895 42.9535H126.958V45.2935H128.895Z" fill="white"/>
<path d="M144.139 49.9995H141.864L139.238 46.5285L138.562 47.3345V49.9995H136.716V41.3285H138.562V45.2025L141.63 41.3285H143.905L140.46 45.3975L144.139 49.9995Z" fill="white"/>
<path d="M154.366 49.9995H148.23V41.3285H154.366V42.9535H150.076V44.7865H154.275V46.4115H150.076V48.3745H154.366V49.9995Z" fill="white"/>
<path d="M162.921 49.9995H161.062V42.9535H158.527V41.3285H165.443V42.9535H162.921V49.9995Z" fill="white"/>
<path d="M171.722 49.9995H169.876V41.3285H171.722V49.9995Z" fill="white"/>
<path d="M184.454 49.9995H182.673L178.539 44.3445V49.9995H176.693V41.3285H178.591L182.608 46.7755V41.3285H184.454V49.9995Z" fill="white"/>
<path d="M193.613 50.1685C192.313 50.1685 191.217 49.7525 190.324 48.9205C189.44 48.0885 188.998 47.0052 188.998 45.6705C188.998 44.3272 189.44 43.2439 190.324 42.4205C191.217 41.5972 192.313 41.1855 193.613 41.1855C195.19 41.1855 196.386 41.8312 197.201 43.1225L195.667 43.9545C195.459 43.6252 195.173 43.3565 194.809 43.1485C194.454 42.9319 194.055 42.8235 193.613 42.8235C192.824 42.8235 192.174 43.0922 191.663 43.6295C191.152 44.1669 190.896 44.8472 190.896 45.6705C190.896 46.4939 191.152 47.1742 191.663 47.7115C192.174 48.2489 192.824 48.5175 193.613 48.5175C193.977 48.5175 194.328 48.4525 194.666 48.3225C195.004 48.1925 195.268 48.0365 195.459 47.8545V46.8145H193.171V45.2025H197.305V48.5305C196.326 49.6225 195.095 50.1685 193.613 50.1685Z" fill="white"/>
<path fill-rule="evenodd" clip-rule="evenodd" d="M81.9648 30H101.652C111.027 29.0625 116.652 22.0312 116.652 15C116.652 7.96875 111.496 0.46875 101.652 0H81.9648V9.16672H99.5966C102.818 9.16672 106.34 11.7783 106.34 15C106.34 18.2217 102.818 20.8334 99.5966 20.8334H81.9648V30Z" fill="white"/>
<path fill-rule="evenodd" clip-rule="evenodd" d="M75.8118 0.9375L75.8117 0.949749L75.8528 0.9375L75.8118 0.9375ZM71.0406 3.63413L65.0898 1.40378L70.4535 2.60908L70.4734 1.07613L75.7878 2.79132L75.8113 0.972418L81.0273 2.96751L76.3972 2.09379L76.3758 3.75L71.0613 2.03481L71.0406 3.63413Z" fill="white"/>
<path fill-rule="evenodd" clip-rule="evenodd" d="M75.8118 5.625L75.8117 5.63725L75.8528 5.625L75.8118 5.625ZM71.0406 8.32163L65.0898 6.09128L70.4535 7.29658L70.4734 5.76363L75.7878 7.47882L75.8113 5.65992L81.0273 7.65501L76.3972 6.78129L76.3758 8.4375L71.0613 6.72231L71.0406 8.32163Z" fill="white"/>
<path fill-rule="evenodd" clip-rule="evenodd" d="M75.8118 21.5625L75.8117 21.5747L75.8528 21.5625L75.8118 21.5625ZM71.0406 24.2591L65.0898 22.0288L70.4535 23.2341L70.4734 21.7011L75.7878 23.4163L75.8113 21.5974L81.0273 23.5925L76.3972 22.7188L76.3758 24.375L71.0613 22.6598L71.0406 24.2591Z" fill="white"/>
<path fill-rule="evenodd" clip-rule="evenodd" d="M75.8118 26.25L75.8117 26.2622L75.8528 26.25L75.8118 26.25ZM71.0406 28.9466L65.0898 26.7163L70.4535 27.9216L70.4734 26.3886L75.7878 28.1038L75.8113 26.2849L81.0273 28.28L76.3972 27.4063L76.3758 29.0625L71.0613 27.3473L71.0406 28.9466Z" fill="white"/>
</svg>
