<svg width="125" height="32" viewBox="0 0 125 32" fill="none" xmlns="http://www.w3.org/2000/svg">
<path d="M5.92151 31.5002H4.75031V27.6754L3.21055 31.5002H2.70276L1.16301 27.6754V31.5002H0V26.0374H1.62985L2.95666 29.338L4.28347 26.0374H5.92151V31.5002Z" fill="#9B9B9B"/>
<path d="M14.1483 31.5002H12.8215L12.4857 30.5747H10.1433L9.79931 31.5002H8.47249L10.5856 26.0374H12.0434L14.1483 31.5002ZM12.1663 29.5509L11.3145 27.2004L10.4627 29.5509H12.1663Z" fill="#9B9B9B"/>
<path d="M19.0658 31.6067C18.2468 31.6067 17.5561 31.3446 16.9937 30.8204C16.4368 30.2963 16.1583 29.6137 16.1583 28.7729C16.1583 27.9266 16.4368 27.244 16.9937 26.7253C17.5561 26.2066 18.2468 25.9473 19.0658 25.9473C20.0595 25.9473 20.813 26.354 21.3263 27.1676L20.3598 27.6918C20.2288 27.4843 20.0486 27.315 19.8193 27.184C19.5954 27.0475 19.3443 26.9792 19.0658 26.9792C18.5689 26.9792 18.1594 27.1485 17.8373 27.487C17.5151 27.8255 17.3541 28.2542 17.3541 28.7729C17.3541 29.2916 17.5151 29.7202 17.8373 30.0587C18.1594 30.3973 18.5689 30.5665 19.0658 30.5665C19.2951 30.5665 19.5163 30.5256 19.7292 30.4437C19.9422 30.3618 20.1087 30.2635 20.2288 30.1488V29.4936H18.7873V28.478H21.3918V30.5747C20.7748 31.2627 19.9995 31.6067 19.0658 31.6067Z" fill="#9B9B9B"/>
<path d="M29.2522 31.5002H28.1301L25.5256 27.9375V31.5002H24.3626V26.0374H25.5584L28.0891 29.469V26.0374H29.2522V31.5002Z" fill="#9B9B9B"/>
<path d="M36.2426 31.5002H32.3768V26.0374H36.2426V27.0611H33.5398V28.2159H36.1853V29.2397H33.5398V30.4764H36.2426V31.5002Z" fill="#9B9B9B"/>
<path d="M41.6318 31.5002H40.4606V27.0611H38.8635V26.0374H43.2207V27.0611H41.6318V31.5002Z" fill="#9B9B9B"/>
<path d="M47.1768 31.5002H46.0138V26.0374H47.1768V31.5002Z" fill="#9B9B9B"/>
<path d="M52.9543 31.5985C52.1244 31.5985 51.4309 31.3364 50.874 30.8122C50.3225 30.2826 50.0468 29.6028 50.0468 28.7729C50.0468 27.9429 50.3225 27.2659 50.874 26.7417C51.4309 26.2121 52.1244 25.9473 52.9543 25.9473C53.9753 25.9473 54.737 26.3923 55.2394 27.2823L54.2402 27.7737C54.12 27.5444 53.9426 27.356 53.7078 27.2086C53.4785 27.0557 53.2273 26.9792 52.9543 26.9792C52.4574 26.9792 52.0479 27.1485 51.7258 27.487C51.4036 27.8255 51.2426 28.2542 51.2426 28.7729C51.2426 29.2916 51.4036 29.7202 51.7258 30.0587C52.0479 30.3973 52.4574 30.5665 52.9543 30.5665C53.2273 30.5665 53.4785 30.4928 53.7078 30.3454C53.9426 30.198 54.12 30.0069 54.2402 29.7721L55.2394 30.2553C54.7207 31.1508 53.959 31.5985 52.9543 31.5985Z" fill="#9B9B9B"/>
<path d="M68.0438 31.5002H66.8726V27.6754L65.3328 31.5002H64.825L63.2853 27.6754V31.5002H62.1223V26.0374H63.7521L65.0789 29.338L66.4057 26.0374H68.0438V31.5002Z" fill="#9B9B9B"/>
<path d="M76.2706 31.5002H74.9437L74.6079 30.5747H72.2656L71.9216 31.5002H70.5948L72.7078 26.0374H74.1657L76.2706 31.5002ZM74.2885 29.5509L73.4368 27.2004L72.585 29.5509H74.2885Z" fill="#9B9B9B"/>
<path d="M83.2453 31.5002H81.9103L80.8374 29.5591H79.9856V31.5002H78.8226V26.0374H81.3779C81.9403 26.0374 82.3853 26.2012 82.7129 26.5288C83.046 26.8564 83.2125 27.2795 83.2125 27.7982C83.2125 28.246 83.0951 28.6091 82.8603 28.8875C82.631 29.166 82.3498 29.3435 82.0167 29.4199L83.2453 31.5002ZM81.2059 28.5354C81.4462 28.5354 81.6427 28.4698 81.7956 28.3388C81.9485 28.2023 82.0249 28.0221 82.0249 27.7982C82.0249 27.5744 81.9485 27.3969 81.7956 27.2659C81.6427 27.1294 81.4462 27.0611 81.2059 27.0611H79.9856V28.5354H81.2059Z" fill="#9B9B9B"/>
<path d="M90.8096 31.5002H89.3763L87.7219 29.3134L87.296 29.8212V31.5002H86.133V26.0374H87.296V28.478L89.2288 26.0374H90.6621L88.4917 28.6009L90.8096 31.5002Z" fill="#9B9B9B"/>
<path d="M97.2531 31.5002H93.3874V26.0374H97.2531V27.0611H94.5504V28.2159H97.1958V29.2397H94.5504V30.4764H97.2531V31.5002Z" fill="#9B9B9B"/>
<path d="M102.642 31.5002H101.471V27.0611H99.874V26.0374H104.231V27.0611H102.642V31.5002Z" fill="#9B9B9B"/>
<path d="M108.187 31.5002H107.024V26.0374H108.187V31.5002Z" fill="#9B9B9B"/>
<path d="M116.209 31.5002H115.087L112.482 27.9375V31.5002H111.319V26.0374H112.515L115.046 29.469V26.0374H116.209V31.5002Z" fill="#9B9B9B"/>
<path d="M121.979 31.6067C121.16 31.6067 120.469 31.3446 119.907 30.8204C119.35 30.2963 119.072 29.6137 119.072 28.7729C119.072 27.9266 119.35 27.244 119.907 26.7253C120.469 26.2066 121.16 25.9473 121.979 25.9473C122.973 25.9473 123.726 26.354 124.24 27.1676L123.273 27.6918C123.142 27.4843 122.962 27.315 122.733 27.184C122.509 27.0475 122.258 26.9792 121.979 26.9792C121.482 26.9792 121.073 27.1485 120.751 27.487C120.428 27.8255 120.267 28.2542 120.267 28.7729C120.267 29.2916 120.428 29.7202 120.751 30.0587C121.073 30.3973 121.482 30.5665 121.979 30.5665C122.208 30.5665 122.43 30.5256 122.642 30.4437C122.855 30.3618 123.022 30.2635 123.142 30.1488V29.4936H121.701V28.478H124.305V30.5747C123.688 31.2627 122.913 31.6067 121.979 31.6067Z" fill="#9B9B9B"/>
<path fill-rule="evenodd" clip-rule="evenodd" d="M51.6392 18.9004H64.0426C69.949 18.3098 73.4928 13.88 73.4928 9.45022C73.4928 5.02043 70.2443 0.295319 64.0426 0H51.6392V5.77517H62.7474C64.7771 5.77517 66.9958 7.42052 66.9958 9.45022C66.9958 11.4799 64.7771 13.1253 62.7474 13.1253H51.6392V18.9004Z" fill="#9B9B9B"/>
<path fill-rule="evenodd" clip-rule="evenodd" d="M47.7628 0.591366L47.7627 0.599082L47.7886 0.591366L47.7628 0.591366ZM44.7569 2.29028L41.0078 0.885126L44.387 1.64448L44.3995 0.678702L47.7477 1.7593L47.7625 0.613364L51.0487 1.8703L48.1316 1.31985L48.1181 2.36328L44.7699 1.28268L44.7569 2.29028Z" fill="#9B9B9B"/>
<path fill-rule="evenodd" clip-rule="evenodd" d="M47.7628 3.54449L47.7627 3.55221L47.7886 3.54449L47.7628 3.54449ZM44.7569 5.2434L41.0078 3.83825L44.387 4.59761L44.3995 3.63183L47.7477 4.71242L47.7625 3.56649L51.0487 4.82343L48.1316 4.27297L48.1181 5.31641L44.7699 4.23581L44.7569 5.2434Z" fill="#9B9B9B"/>
<path fill-rule="evenodd" clip-rule="evenodd" d="M47.7628 13.5855L47.7627 13.5932L47.7886 13.5855L47.7628 13.5855ZM44.7569 15.2844L41.0078 13.8793L44.387 14.6386L44.3995 13.6728L47.7477 14.7534L47.7625 13.6075L51.0487 14.8644L48.1316 14.314L48.1181 15.3574L44.7699 14.2768L44.7569 15.2844Z" fill="#9B9B9B"/>
<path fill-rule="evenodd" clip-rule="evenodd" d="M47.7628 16.5386L47.7627 16.5463L47.7886 16.5386L47.7628 16.5386ZM44.7569 18.2375L41.0078 16.8324L44.387 17.5917L44.3995 16.626L47.7477 17.7066L47.7625 16.5606L51.0487 17.8176L48.1316 17.2671L48.1181 18.3105L44.7699 17.23L44.7569 18.2375Z" fill="#9B9B9B"/>
</svg>
