<?xml version="1.0" encoding="utf-8"?>
<!-- Generator: Adobe Illustrator 19.0.0, SVG Export Plug-In . SVG Version: 6.00 Build 0)  -->
<svg version="1.1" id="Layer_1" xmlns="http://www.w3.org/2000/svg" xmlns:xlink="http://www.w3.org/1999/xlink" x="0px" y="0px"
	 viewBox="-206 371 198 51" style="enable-background:new -206 371 198 51;" xml:space="preserve">
<style type="text/css">
	.st0{fill:#9B9B9B;}
</style>
<path class="st0" d="M-196.6,421h-1.9v-6.1l-2.4,6.1h-0.8l-2.4-6.1v6.1h-1.8v-8.7h2.6l2.1,5.2l2.1-5.2h2.6V421z"/>
<path class="st0" d="M-183.5,421h-2.1l-0.5-1.5h-3.7l-0.5,1.5h-2.1l3.4-8.7h2.3L-183.5,421z M-186.7,417.9l-1.4-3.7l-1.4,3.7H-186.7
	z"/>
<path class="st0" d="M-175.7,421.2c-1.3,0-2.4-0.4-3.3-1.2c-0.9-0.8-1.3-1.9-1.3-3.3c0-1.3,0.4-2.4,1.3-3.3c0.9-0.8,2-1.2,3.3-1.2
	c1.6,0,2.8,0.6,3.6,1.9l-1.5,0.8c-0.2-0.3-0.5-0.6-0.9-0.8c-0.4-0.2-0.8-0.3-1.2-0.3c-0.8,0-1.4,0.3-1.9,0.8c-0.5,0.5-0.8,1.2-0.8,2
	c0,0.8,0.3,1.5,0.8,2c0.5,0.5,1.2,0.8,1.9,0.8c0.4,0,0.7-0.1,1.1-0.2s0.6-0.3,0.8-0.5v-1h-2.3v-1.6h4.1v3.3
	C-173,420.6-174.3,421.2-175.7,421.2z"/>
<path class="st0" d="M-159.6,421h-1.8l-4.1-5.7v5.7h-1.8v-8.7h1.9l4,5.4v-5.4h1.8V421z"/>
<path class="st0" d="M-148.5,421h-6.1v-8.7h6.1v1.6h-4.3v1.8h4.2v1.6h-4.2v2h4.3V421z"/>
<path class="st0" d="M-139.9,421h-1.9v-7h-2.5v-1.6h6.9v1.6h-2.5V421z"/>
<path class="st0" d="M-131.1,421h-1.8v-8.7h1.8V421z"/>
<path class="st0" d="M-121.9,421.2c-1.3,0-2.4-0.4-3.3-1.2c-0.9-0.8-1.3-1.9-1.3-3.2c0-1.3,0.4-2.4,1.3-3.2c0.9-0.8,2-1.3,3.3-1.3
	c1.6,0,2.8,0.7,3.6,2.1l-1.6,0.8c-0.2-0.4-0.5-0.7-0.8-0.9c-0.4-0.2-0.8-0.4-1.2-0.4c-0.8,0-1.4,0.3-1.9,0.8c-0.5,0.5-0.8,1.2-0.8,2
	c0,0.8,0.3,1.5,0.8,2c0.5,0.5,1.2,0.8,1.9,0.8c0.4,0,0.8-0.1,1.2-0.4c0.4-0.2,0.7-0.5,0.8-0.9l1.6,0.8
	C-119.1,420.4-120.4,421.2-121.9,421.2z"/>
<path class="st0" d="M-98,421h-1.9v-6.1l-2.4,6.1h-0.8l-2.4-6.1v6.1h-1.8v-8.7h2.6l2.1,5.2l2.1-5.2h2.6V421z"/>
<path class="st0" d="M-84.9,421H-87l-0.5-1.5h-3.7l-0.5,1.5h-2.1l3.4-8.7h2.3L-84.9,421z M-88.1,417.9l-1.4-3.7l-1.4,3.7H-88.1z"/>
<path class="st0" d="M-73.9,421H-76l-1.7-3.1H-79v3.1h-1.8v-8.7h4.1c0.9,0,1.6,0.3,2.1,0.8c0.5,0.5,0.8,1.2,0.8,2
	c0,0.7-0.2,1.3-0.6,1.7c-0.4,0.4-0.8,0.7-1.3,0.8L-73.9,421z M-77.1,416.3c0.4,0,0.7-0.1,0.9-0.3c0.2-0.2,0.4-0.5,0.4-0.9
	c0-0.4-0.1-0.6-0.4-0.8c-0.2-0.2-0.6-0.3-0.9-0.3H-79v2.3H-77.1z"/>
<path class="st0" d="M-61.9,421h-2.3l-2.6-3.5l-0.7,0.8v2.7h-1.8v-8.7h1.8v3.9l3.1-3.9h2.3l-3.4,4.1L-61.9,421z"/>
<path class="st0" d="M-51.6,421h-6.1v-8.7h6.1v1.6h-4.3v1.8h4.2v1.6h-4.2v2h4.3V421z"/>
<path class="st0" d="M-43.1,421h-1.9v-7h-2.5v-1.6h6.9v1.6h-2.5V421z"/>
<path class="st0" d="M-34.3,421h-1.8v-8.7h1.8V421z"/>
<path class="st0" d="M-21.5,421h-1.8l-4.1-5.7v5.7h-1.8v-8.7h1.9l4,5.4v-5.4h1.8V421z"/>
<path class="st0" d="M-12.4,421.2c-1.3,0-2.4-0.4-3.3-1.2c-0.9-0.8-1.3-1.9-1.3-3.3c0-1.3,0.4-2.4,1.3-3.3c0.9-0.8,2-1.2,3.3-1.2
	c1.6,0,2.8,0.6,3.6,1.9l-1.5,0.8c-0.2-0.3-0.5-0.6-0.9-0.8c-0.4-0.2-0.8-0.3-1.2-0.3c-0.8,0-1.4,0.3-2,0.8c-0.5,0.5-0.8,1.2-0.8,2
	c0,0.8,0.3,1.5,0.8,2c0.5,0.5,1.2,0.8,2,0.8c0.4,0,0.7-0.1,1.1-0.2s0.6-0.3,0.8-0.5v-1h-2.3v-1.6h4.1v3.3
	C-9.7,420.6-10.9,421.2-12.4,421.2z"/>
<path class="st0" d="M-124,401h19.7c9.4-0.9,15-8,15-15c0-7-5.2-14.5-15-15H-124v9.2h17.6c3.2,0,6.7,2.6,6.7,5.8s-3.5,5.8-6.7,5.8
	H-124V401z"/>
<path class="st0" d="M-130.2,371.9L-130.2,371.9L-130.2,371.9L-130.2,371.9z M-135,374.6l-6-2.2l5.4,1.2l0-1.5l5.3,1.7l0-1.8l5.2,2
	l-4.6-0.9l0,1.7l-5.3-1.7L-135,374.6z"/>
<path class="st0" d="M-130.2,376.6L-130.2,376.6L-130.2,376.6L-130.2,376.6z M-135,379.3l-6-2.2l5.4,1.2l0-1.5l5.3,1.7l0-1.8l5.2,2
	l-4.6-0.9l0,1.7l-5.3-1.7L-135,379.3z"/>
<path class="st0" d="M-130.2,392.6L-130.2,392.6L-130.2,392.6L-130.2,392.6z M-135,395.3l-6-2.2l5.4,1.2l0-1.5l5.3,1.7l0-1.8l5.2,2
	l-4.6-0.9l0,1.7l-5.3-1.7L-135,395.3z"/>
<path class="st0" d="M-130.2,397.3L-130.2,397.3L-130.2,397.3L-130.2,397.3z M-135,399.9l-6-2.2l5.4,1.2l0-1.5l5.3,1.7l0-1.8l5.2,2
	l-4.6-0.9l0,1.7l-5.3-1.7L-135,399.9z"/>
</svg>
